<?xml version="1.0" standalone="no"?><svg xmlns="http://www.w3.org/2000/svg" viewBox="0 0 1440 320"><path fill="#f300b4" fill-opacity="1" d="M0,128L0,64L84.7,64L84.7,192L169.4,192L169.4,256L254.1,256L254.1,64L338.8,64L338.8,96L423.5,96L423.5,96L508.2,96L508.2,288L592.9,288L592.9,288L677.6,288L677.6,192L762.4,192L762.4,64L847.1,64L847.1,288L931.8,288L931.8,32L1016.5,32L1016.5,96L1101.2,96L1101.2,160L1185.9,160L1185.9,288L1270.6,288L1270.6,64L1355.3,64L1355.3,96L1440,96L1440,0L1355.3,0L1355.3,0L1270.6,0L1270.6,0L1185.9,0L1185.9,0L1101.2,0L1101.2,0L1016.5,0L1016.5,0L931.8,0L931.8,0L847.1,0L847.1,0L762.4,0L762.4,0L677.6,0L677.6,0L592.9,0L592.9,0L508.2,0L508.2,0L423.5,0L423.5,0L338.8,0L338.8,0L254.1,0L254.1,0L169.4,0L169.4,0L84.7,0L84.7,0L0,0L0,0Z"></path></svg>